<svg width="234" height="234" viewBox="0 0 234 234" fill="none" xmlns="http://www.w3.org/2000/svg">
<g filter="url(#filter0_d_975_38)">
<circle cx="117" cy="117" r="99" fill="white"/>
</g>
<path d="M193.206 118.494C193.245 117.806 193.418 117.21 193.724 116.706C194.03 116.21 194.463 115.84 195.024 115.594C195.585 115.348 196.255 115.256 197.034 115.317C197.829 115.379 198.495 115.577 199.032 115.91C199.568 116.244 199.964 116.687 200.218 117.24C200.472 117.801 200.58 118.43 200.54 119.126C200.485 120.09 200.233 120.825 199.784 121.329C199.342 121.843 198.714 122.16 197.9 122.282L197.794 121.039C198.151 120.976 198.44 120.845 198.661 120.647C198.883 120.458 199.043 120.223 199.143 119.942C199.252 119.663 199.315 119.367 199.332 119.057C199.378 118.252 199.19 117.644 198.767 117.233C198.353 116.831 197.784 116.613 197.063 116.581C196.258 116.535 195.625 116.713 195.164 117.116C194.712 117.528 194.463 118.128 194.418 118.916C194.4 119.235 194.433 119.54 194.518 119.831C194.61 120.131 194.755 120.391 194.953 120.613C195.159 120.835 195.428 120.993 195.759 121.088L195.848 119.528L196.791 119.581L196.634 122.349L193.137 122.15L193.186 121.282L194.435 121.063L194.437 121.038C194.281 120.97 194.127 120.864 193.975 120.721C193.823 120.578 193.686 120.402 193.563 120.193C193.441 119.984 193.345 119.739 193.277 119.457C193.209 119.176 193.185 118.855 193.206 118.494Z" fill="#6A6A6A"/>
<path d="M191.855 131.122C191.981 130.539 192.207 130.089 192.532 129.772C192.865 129.466 193.247 129.264 193.68 129.169C194.112 129.081 194.542 129.079 194.971 129.163C195.481 129.264 195.913 129.455 196.265 129.737C196.623 130.029 196.873 130.384 197.015 130.801C197.164 131.228 197.184 131.696 197.074 132.206C196.977 132.657 196.791 133.043 196.516 133.361C196.241 133.68 195.905 133.905 195.508 134.034C195.109 134.171 194.662 134.191 194.168 134.094C194.151 134.09 194.102 134.079 194.02 134.062C193.946 134.046 193.888 134.034 193.847 134.025L194.64 130.342C194.171 130.241 193.785 130.278 193.481 130.453C193.184 130.638 192.993 130.928 192.908 131.322C192.841 131.634 192.863 131.91 192.975 132.149C193.085 132.396 193.263 132.567 193.509 132.663L193.246 133.883C192.9 133.774 192.605 133.59 192.36 133.331C192.115 133.072 191.942 132.756 191.842 132.382C191.75 132.01 191.755 131.59 191.855 131.122ZM195.198 130.5L194.684 132.89C194.743 132.894 194.837 132.897 194.966 132.899C195.094 132.901 195.233 132.875 195.382 132.821C195.531 132.767 195.668 132.672 195.792 132.535C195.915 132.399 196.004 132.207 196.057 131.961C196.11 131.715 196.112 131.505 196.064 131.331C196.015 131.157 195.938 131.016 195.832 130.907C195.727 130.799 195.617 130.711 195.503 130.643C195.388 130.576 195.287 130.528 195.198 130.5Z" fill="#6A6A6A"/>
<path d="M189.686 140.077C189.815 139.686 190.008 139.422 190.265 139.286C190.519 139.157 190.862 139.164 191.293 139.305L194.261 140.281L193.888 141.418L190.656 140.356L190.278 141.505L189.321 141.19L189.686 140.077ZM194.374 139.495L195.236 139.779C195.178 139.954 195.143 140.102 195.13 140.221C195.117 140.341 195.14 140.446 195.199 140.536C195.255 140.634 195.362 140.726 195.519 140.813C195.676 140.9 195.902 140.992 196.197 141.089L195.875 142.071L194.618 141.658L194.248 142.783L193.386 142.5L194.374 139.495Z" fill="#6A6A6A"/>
<path d="M186.076 149.273L190.733 151.537L190.171 152.693L185.514 150.429L186.076 149.273ZM191.053 152.407C191.174 152.158 191.321 152.019 191.493 151.991C191.662 151.97 191.83 152.001 191.996 152.081C192.162 152.162 192.285 152.273 192.366 152.415C192.45 152.568 192.432 152.77 192.311 153.019C192.186 153.276 192.041 153.411 191.876 153.424C191.714 153.448 191.551 153.42 191.384 153.339C191.218 153.258 191.091 153.145 191.003 153C190.911 152.862 190.928 152.664 191.053 152.407Z" fill="#6A6A6A"/>
<path d="M184.573 152.516L189.015 155.178L188.452 156.118L187.38 155.726L187.367 155.747C187.384 155.767 187.426 155.827 187.494 155.926C187.565 156.037 187.629 156.183 187.687 156.365C187.74 156.554 187.754 156.768 187.728 157.007C187.705 157.257 187.608 157.527 187.435 157.815C187.245 158.132 187.038 158.356 186.813 158.485C186.591 158.627 186.359 158.703 186.117 158.715C185.883 158.731 185.648 158.698 185.413 158.616C185.181 158.545 184.962 158.453 184.756 158.34C184.545 158.233 184.357 158.13 184.192 158.031L182.041 156.742L182.688 155.662L184.85 156.957C185.088 157.099 185.319 157.203 185.544 157.27C185.764 157.343 185.977 157.348 186.181 157.284C186.382 157.228 186.566 157.059 186.734 156.778C186.907 156.49 186.97 156.229 186.924 155.996C186.885 155.767 186.782 155.563 186.614 155.385C186.447 155.206 186.248 155.048 186.018 154.91L183.899 153.64L184.573 152.516Z" fill="#6A6A6A"/>
<path d="M174.938 166.491C175.207 166.18 175.487 166.011 175.776 165.983C176.061 165.963 176.375 166.101 176.718 166.397L179.082 168.441L178.299 169.346L175.725 167.122L174.934 168.037L174.172 167.378L174.938 166.491ZM179.488 167.759L180.174 168.353C180.053 168.492 179.964 168.615 179.906 168.72C179.848 168.826 179.829 168.931 179.849 169.037C179.863 169.149 179.926 169.276 180.037 169.417C180.149 169.557 180.322 169.729 180.557 169.933L179.881 170.714L178.88 169.849L178.106 170.745L177.42 170.152L179.488 167.759Z" fill="#6A6A6A"/>
<path d="M170.462 171.143C170.878 170.751 171.307 170.503 171.75 170.397C172.187 170.297 172.611 170.324 173.022 170.479C173.44 170.64 173.824 170.907 174.175 171.28C174.532 171.659 174.776 172.058 174.906 172.478C175.042 172.904 175.047 173.332 174.922 173.762C174.79 174.198 174.513 174.615 174.091 175.012C173.474 175.594 172.839 175.858 172.187 175.803C171.529 175.753 170.926 175.438 170.379 174.858C170.039 174.497 169.798 174.106 169.656 173.686C169.514 173.266 169.503 172.838 169.623 172.402C169.749 171.972 170.028 171.552 170.462 171.143ZM171.206 171.932C170.93 172.191 170.777 172.445 170.746 172.694C170.709 172.948 170.749 173.187 170.868 173.41C170.991 173.64 171.14 173.846 171.313 174.03C171.497 174.225 171.697 174.389 171.913 174.52C172.129 174.651 172.365 174.705 172.621 174.683C172.877 174.673 173.143 174.538 173.418 174.279C173.687 174.026 173.837 173.769 173.869 173.508C173.9 173.259 173.859 173.021 173.747 172.791C173.629 172.568 173.478 172.359 173.293 172.163C173.121 171.98 172.923 171.819 172.702 171.682C172.479 171.556 172.243 171.502 171.993 171.518C171.737 171.54 171.475 171.678 171.206 171.932Z" fill="#6A6A6A"/>
<path d="M163.271 177.43C163.564 177.219 163.84 177.092 164.1 177.05C164.353 177.013 164.59 177.033 164.812 177.111C165.027 177.194 165.228 177.314 165.413 177.471C165.598 177.627 165.766 177.796 165.917 177.977C166.074 178.164 166.211 178.34 166.328 178.504L167.876 180.65L166.864 181.379L165.317 179.233C165.164 179.022 164.999 178.836 164.821 178.674C164.647 178.52 164.451 178.428 164.233 178.399C164.014 178.381 163.767 178.47 163.495 178.667C163.229 178.859 163.07 179.061 163.017 179.275C162.969 179.496 162.988 179.716 163.073 179.934C163.163 180.16 163.273 180.37 163.404 180.566L164.973 182.743L163.9 183.516L160.872 179.316L161.761 178.675L162.509 179.347L162.53 179.332C162.514 179.281 162.499 179.188 162.484 179.054C162.47 178.919 162.478 178.758 162.509 178.57C162.532 178.388 162.602 178.197 162.719 178C162.835 177.802 163.019 177.612 163.271 177.43Z" fill="#6A6A6A"/>
<path d="M154.43 183.274C154.859 183.043 155.293 182.919 155.733 182.902C156.176 182.892 156.593 183.001 156.983 183.23C157.377 183.466 157.708 183.832 157.975 184.327C158.227 184.831 158.349 185.314 158.34 185.776C158.324 186.243 158.194 186.666 157.95 187.045C157.706 187.425 157.366 187.732 156.93 187.967C156.471 188.214 156.035 188.335 155.622 188.328C155.212 188.33 154.845 188.241 154.52 188.063C154.195 187.885 153.94 187.651 153.754 187.359L154.797 186.798C154.992 187.036 155.224 187.174 155.492 187.21C155.76 187.247 156.053 187.18 156.371 187.009C156.637 186.866 156.833 186.689 156.958 186.478C157.083 186.267 157.144 186.035 157.139 185.779C157.132 185.535 157.057 185.28 156.913 185.014C156.682 184.585 156.393 184.297 156.047 184.149C155.697 184.013 155.315 184.057 154.901 184.28C154.62 184.431 154.416 184.637 154.288 184.896C154.153 185.16 154.138 185.45 154.241 185.766L153.199 186.328C153.05 185.998 152.992 185.642 153.025 185.262C153.051 184.885 153.179 184.521 153.409 184.168C153.631 183.819 153.972 183.521 154.43 183.274Z" fill="#6A6A6A"/>
<path d="M147.698 186.904L150.215 193.536L148.978 194.005L147.901 191.166L147.877 191.175C147.878 191.202 147.875 191.275 147.866 191.395C147.861 191.523 147.825 191.676 147.758 191.854C147.69 192.032 147.577 192.206 147.416 192.375C147.251 192.554 147.015 192.702 146.708 192.818C146.371 192.947 146.07 192.994 145.805 192.959C145.54 192.925 145.309 192.837 145.112 192.697C144.907 192.559 144.734 192.386 144.593 192.179C144.446 191.983 144.324 191.778 144.224 191.565C144.128 191.358 144.047 191.169 143.982 190.996L143.092 188.652L144.258 188.209L145.152 190.565C145.251 190.825 145.368 191.05 145.503 191.241C145.631 191.435 145.795 191.571 145.994 191.647C146.194 191.724 146.447 191.705 146.754 191.588C147.06 191.472 147.267 191.308 147.376 191.096C147.487 190.892 147.532 190.668 147.511 190.425C147.491 190.181 147.433 189.933 147.337 189.682L146.461 187.373L147.698 186.904Z" fill="#6A6A6A"/>
<path d="M130.773 194.545C130.996 194.506 131.177 194.514 131.314 194.567C131.452 194.628 131.571 194.701 131.671 194.786C131.763 194.873 131.853 194.951 131.942 195.021C132.022 195.093 132.124 195.118 132.249 195.096C132.398 195.071 132.477 194.989 132.488 194.851C132.491 194.722 132.474 194.55 132.437 194.335L133.182 194.207C133.202 194.323 133.222 194.46 133.24 194.619C133.259 194.778 133.257 194.94 133.235 195.106C133.204 195.273 133.131 195.422 133.017 195.552C132.895 195.684 132.706 195.772 132.449 195.816C132.226 195.855 132.045 195.843 131.906 195.782C131.769 195.728 131.654 195.655 131.561 195.56C131.461 195.475 131.367 195.397 131.278 195.327C131.191 195.265 131.089 195.245 130.974 195.264C130.825 195.29 130.749 195.371 130.747 195.508C130.746 195.653 130.763 195.825 130.797 196.024L130.04 196.154C130.016 196.013 129.998 195.859 129.986 195.69C129.965 195.523 129.976 195.359 130.016 195.199C130.048 195.04 130.126 194.899 130.25 194.775C130.367 194.661 130.541 194.585 130.773 194.545Z" fill="#6A6A6A"/>
<path d="M115.861 193.211C116.549 193.242 117.147 193.407 117.655 193.708C118.155 194.007 118.531 194.436 118.783 194.994C119.035 195.552 119.136 196.221 119.084 197.001C119.031 197.797 118.841 198.465 118.514 199.006C118.187 199.546 117.749 199.947 117.199 200.208C116.641 200.469 116.013 200.583 115.317 200.552C114.352 200.509 113.615 200.265 113.105 199.822C112.586 199.387 112.261 198.762 112.129 197.949L113.371 197.829C113.439 198.185 113.573 198.472 113.774 198.692C113.965 198.911 114.202 199.068 114.484 199.165C114.765 199.27 115.061 199.33 115.371 199.344C116.177 199.38 116.783 199.184 117.189 198.757C117.586 198.337 117.796 197.767 117.821 197.045C117.857 196.239 117.671 195.609 117.262 195.153C116.845 194.705 116.242 194.464 115.453 194.428C115.134 194.414 114.83 194.451 114.54 194.539C114.242 194.635 113.983 194.783 113.764 194.983C113.544 195.192 113.389 195.462 113.298 195.795L114.859 195.865L114.817 196.809L112.047 196.684L112.205 193.185L113.073 193.224L113.307 194.471L113.332 194.472C113.398 194.315 113.502 194.16 113.643 194.007C113.785 193.853 113.959 193.714 114.167 193.589C114.374 193.463 114.618 193.365 114.899 193.294C115.18 193.222 115.5 193.194 115.861 193.211Z" fill="#6A6A6A"/>
<path d="M103.22 192.014C103.805 192.132 104.257 192.352 104.578 192.674C104.888 193.003 105.094 193.383 105.195 193.815C105.288 194.245 105.295 194.675 105.217 195.105C105.122 195.617 104.935 196.051 104.658 196.406C104.37 196.767 104.019 197.022 103.603 197.169C103.178 197.323 102.71 197.348 102.2 197.245C101.747 197.153 101.359 196.972 101.037 196.701C100.715 196.43 100.487 196.097 100.352 195.701C100.21 195.304 100.185 194.857 100.277 194.362C100.28 194.345 100.29 194.296 100.307 194.214C100.322 194.139 100.333 194.082 100.342 194.041L104.034 194.788C104.129 194.319 104.087 193.933 103.908 193.631C103.719 193.336 103.428 193.148 103.032 193.068C102.719 193.005 102.444 193.031 102.207 193.146C101.961 193.259 101.792 193.439 101.699 193.686L100.476 193.438C100.581 193.091 100.761 192.793 101.017 192.545C101.273 192.297 101.587 192.12 101.96 192.016C102.331 191.919 102.751 191.919 103.22 192.014ZM103.882 195.349L101.486 194.864C101.483 194.923 101.481 195.017 101.481 195.145C101.48 195.274 101.508 195.412 101.564 195.561C101.619 195.709 101.716 195.844 101.854 195.967C101.992 196.089 102.185 196.175 102.432 196.225C102.679 196.275 102.889 196.275 103.062 196.224C103.235 196.173 103.375 196.095 103.483 195.988C103.59 195.881 103.677 195.77 103.743 195.655C103.809 195.54 103.855 195.438 103.882 195.349Z" fill="#6A6A6A"/>
<path d="M94.2299 189.953C94.6224 190.077 94.8885 190.266 95.0282 190.522C95.1598 190.775 95.1574 191.117 95.021 191.55L94.0811 194.53L92.9395 194.17L93.9628 190.926L92.8092 190.562L93.1123 189.6L94.2299 189.953ZM94.8678 194.633L94.595 195.498C94.4187 195.442 94.2707 195.409 94.151 195.398C94.0313 195.386 93.9267 195.411 93.8374 195.471C93.74 195.528 93.6488 195.636 93.5637 195.794C93.4786 195.952 93.3893 196.179 93.2958 196.476L92.3104 196.165L92.7084 194.903L91.5788 194.547L91.8517 193.682L94.8678 194.633Z" fill="#6A6A6A"/>
<path d="M84.9983 186.453L82.7899 191.137L81.6275 190.589L83.8358 185.905L84.9983 186.453ZM81.9239 191.467C82.1747 191.585 82.3152 191.73 82.3454 191.902C82.3681 192.071 82.3401 192.239 82.2613 192.406C82.1825 192.573 82.0726 192.698 81.9317 192.78C81.7796 192.866 81.5782 192.85 81.3275 192.732C81.0692 192.61 80.9325 192.467 80.9174 192.302C80.8911 192.141 80.9174 191.977 80.9962 191.81C81.075 191.642 81.1866 191.514 81.3311 191.424C81.468 191.331 81.6656 191.345 81.9239 191.467Z" fill="#6A6A6A"/>
<path d="M81.7348 184.985L79.1263 189.459L78.1793 188.907L78.5591 187.83L78.5374 187.817C78.5174 187.835 78.4582 187.878 78.3596 187.947C78.2496 188.019 78.1042 188.085 77.9234 188.145C77.7354 188.201 77.5216 188.217 77.2822 188.194C77.0313 188.174 76.7607 188.08 76.4704 187.91C76.1511 187.724 75.9252 187.52 75.7928 187.296C75.6488 187.076 75.5696 186.845 75.555 186.604C75.5362 186.369 75.5664 186.134 75.6456 185.898C75.7132 185.665 75.8027 185.445 75.9139 185.238C76.0179 185.026 76.1185 184.837 76.2158 184.67L77.4788 182.504L78.5673 183.138L77.298 185.315C77.1583 185.555 77.0568 185.787 76.9934 186.013C76.9227 186.234 76.9203 186.447 76.9862 186.65C77.0449 186.85 77.2158 187.032 77.4988 187.197C77.789 187.366 78.0506 187.427 78.2833 187.378C78.5119 187.336 78.7144 187.23 78.8909 187.061C79.0675 186.892 79.2234 186.691 79.3588 186.459L80.6027 184.325L81.7348 184.985Z" fill="#6A6A6A"/>
<path d="M67.6467 175.52C67.9613 175.786 68.1338 176.063 68.1642 176.353C68.1883 176.637 68.054 176.952 67.7615 177.299L65.7462 179.687L64.8314 178.915L67.0255 176.315L66.1011 175.535L66.7512 174.764L67.6467 175.52ZM66.4326 180.085L65.8475 180.778C65.7063 180.659 65.5826 180.571 65.4765 180.514C65.3704 180.458 65.2645 180.44 65.159 180.461C65.0471 180.476 64.9214 180.54 64.7819 180.654C64.6425 180.767 64.4725 180.942 64.2721 181.18L63.4825 180.513L64.3357 179.502L63.4306 178.738L64.0156 178.045L66.4326 180.085Z" fill="#6A6A6A"/>
<path d="M62.9421 171.101C63.3387 171.512 63.5925 171.939 63.7035 172.38C63.8086 172.816 63.7862 173.24 63.6363 173.653C63.4803 174.072 63.218 174.46 62.8493 174.816C62.4745 175.177 62.078 175.426 61.6598 175.561C61.2355 175.702 60.8076 175.712 60.3761 175.591C59.9387 175.465 59.5188 175.193 59.1163 174.776C58.5271 174.165 58.2562 173.534 58.3034 172.881C58.3449 172.223 58.6527 171.616 59.2269 171.062C59.5835 170.718 59.971 170.472 60.3895 170.325C60.808 170.178 61.236 170.162 61.6735 170.277C62.1051 170.397 62.5279 170.672 62.9421 171.101ZM62.1623 171.854C61.8998 171.582 61.6441 171.432 61.3951 171.404C61.1403 171.369 60.9019 171.413 60.6799 171.533C60.4519 171.66 60.2472 171.811 60.0659 171.986C59.8725 172.173 59.7115 172.375 59.5829 172.592C59.4542 172.81 59.4025 173.046 59.4277 173.302C59.4409 173.558 59.5788 173.822 59.8413 174.094C60.098 174.36 60.3567 174.507 60.6176 174.535C60.8666 174.564 61.105 174.52 61.3328 174.405C61.5547 174.285 61.7624 174.131 61.9559 173.944C62.1372 173.769 62.2952 173.57 62.4299 173.347C62.5526 173.123 62.6044 172.887 62.5851 172.637C62.5599 172.381 62.419 172.12 62.1623 171.854Z" fill="#6A6A6A"/>
<path d="M56.5687 163.984C56.7834 164.275 56.9134 164.549 56.9586 164.808C56.9989 165.061 56.9813 165.298 56.9058 165.521C56.8254 165.737 56.7081 165.939 56.5539 166.126C56.3997 166.313 56.2331 166.483 56.0539 166.637C55.868 166.795 55.694 166.934 55.5319 167.054L53.4042 168.627L52.6627 167.624L54.7904 166.051C54.9998 165.896 55.1841 165.729 55.3432 165.548C55.4956 165.373 55.5852 165.176 55.6119 164.958C55.6268 164.738 55.5345 164.493 55.3347 164.223C55.14 163.959 54.9352 163.802 54.7205 163.752C54.4991 163.707 54.2797 163.728 54.0624 163.816C53.8383 163.908 53.6292 164.021 53.4351 164.154L51.277 165.75L50.4905 164.686L54.6547 161.607L55.3063 162.489L54.6434 163.245L54.6584 163.265C54.7089 163.249 54.8014 163.233 54.9359 163.217C55.0704 163.201 55.2317 163.207 55.4196 163.235C55.6026 163.257 55.7937 163.324 55.9928 163.438C56.1919 163.552 56.3839 163.734 56.5687 163.984Z" fill="#6A6A6A"/>
<path d="M50.6182 155.212C50.8544 155.638 50.9837 156.071 51.0061 156.51C51.0212 156.953 50.9168 157.371 50.6929 157.764C50.4616 158.161 50.0998 158.496 49.6076 158.769C49.1072 159.027 48.6257 159.155 48.1631 159.152C47.6964 159.142 47.2719 159.017 46.8895 158.777C46.5071 158.538 46.1957 158.202 45.9554 157.768C45.7029 157.313 45.5773 156.878 45.5785 156.464C45.5724 156.055 45.6564 155.686 45.8305 155.359C46.0045 155.032 46.2361 154.774 46.5251 154.585L47.0993 155.621C46.8633 155.819 46.7285 156.053 46.6948 156.321C46.6611 156.589 46.7318 156.882 46.9069 157.197C47.0535 157.462 47.2328 157.655 47.4448 157.778C47.6568 157.901 47.8905 157.958 48.1459 157.951C48.3899 157.941 48.6441 157.862 48.9086 157.716C49.3347 157.48 49.6193 157.187 49.7624 156.839C49.8941 156.488 49.8459 156.106 49.6179 155.695C49.4631 155.416 49.2552 155.214 48.9943 155.09C48.7292 154.958 48.4392 154.946 48.1242 155.053L47.55 154.017C47.8781 153.864 48.2327 153.802 48.6136 153.831C48.9906 153.853 49.3568 153.976 49.7123 154.202C50.0637 154.42 50.3657 154.757 50.6182 155.212Z" fill="#6A6A6A"/>
<path d="M46.9091 148.525L40.3076 151.122L39.8233 149.891L42.6492 148.779L42.64 148.756C42.6134 148.757 42.5401 148.754 42.4201 148.747C42.2922 148.744 42.1387 148.709 41.9597 148.644C41.7807 148.579 41.6059 148.467 41.4352 148.309C41.2536 148.146 41.1029 147.912 40.983 147.607C40.8507 147.271 40.8002 146.97 40.8314 146.705C40.8625 146.44 40.9473 146.208 41.0857 146.009C41.2211 145.803 41.3913 145.627 41.5965 145.483C41.7908 145.335 41.9943 145.21 42.207 145.108C42.4119 145.009 42.6004 144.926 42.7723 144.858L45.1057 143.941L45.5623 145.101L43.2172 146.024C42.9593 146.125 42.7355 146.245 42.546 146.383C42.3534 146.513 42.2198 146.678 42.1453 146.879C42.0709 147.08 42.0936 147.332 42.2135 147.637C42.3334 147.942 42.4999 148.147 42.713 148.253C42.9183 148.362 43.1427 148.405 43.3862 148.381C43.6296 148.357 43.8764 148.296 44.1266 148.198L46.4248 147.294L46.9091 148.525Z" fill="#6A6A6A"/>
<path d="M39.0658 131.682C39.1069 131.905 39.1017 132.086 39.0501 132.223C38.9904 132.362 38.9185 132.482 38.8346 132.583C38.7492 132.676 38.672 132.767 38.6031 132.857C38.5327 132.938 38.5089 133.04 38.5317 133.164C38.5591 133.313 38.642 133.392 38.7802 133.4C38.9087 133.402 39.0803 133.384 39.2951 133.344L39.4321 134.087C39.3165 134.109 39.1794 134.13 39.0209 134.15C38.8625 134.171 38.7002 134.171 38.5341 134.15C38.3665 134.122 38.2168 134.051 38.085 133.939C37.9518 133.818 37.8615 133.63 37.8143 133.373C37.7732 133.15 37.7826 132.969 37.8423 132.83C37.8939 132.693 37.9665 132.577 38.0602 132.483C38.1441 132.382 38.2205 132.286 38.2894 132.197C38.35 132.109 38.3697 132.007 38.3484 131.891C38.321 131.743 38.2389 131.668 38.1022 131.668C37.9572 131.669 37.7855 131.688 37.5873 131.724L37.448 130.968C37.5884 130.942 37.7427 130.922 37.911 130.908C38.0778 130.886 38.2416 130.895 38.4024 130.933C38.5618 130.964 38.704 131.04 38.829 131.162C38.9442 131.278 39.0231 131.451 39.0658 131.682Z" fill="#6A6A6A"/>
<path d="M40.2235 116.771C40.2008 117.46 40.0423 118.06 39.7481 118.571C39.4542 119.074 39.0298 119.455 38.4749 119.714C37.9201 119.973 37.2526 120.081 36.4723 120.039C35.6753 119.996 35.0047 119.814 34.4606 119.493C33.9165 119.173 33.5106 118.739 33.2429 118.192C32.9754 117.637 32.8532 117.011 32.8762 116.315C32.908 115.349 33.1426 114.609 33.5798 114.094C34.0089 113.57 34.6292 113.237 35.4407 113.096L35.5763 114.336C35.2209 114.408 34.9348 114.546 34.718 114.749C34.5015 114.944 34.3465 115.182 34.2531 115.465C34.1514 115.747 34.0954 116.044 34.0851 116.354C34.0585 117.16 34.2613 117.764 34.6936 118.165C35.1177 118.557 35.6908 118.761 36.4131 118.776C37.2191 118.803 37.8474 118.609 38.2981 118.195C38.7407 117.773 38.975 117.167 39.001 116.378C39.0115 116.059 38.9711 115.755 38.8798 115.466C38.7804 115.169 38.6292 114.912 38.4262 114.695C38.2148 114.478 37.9425 114.326 37.6092 114.239L37.5577 115.801L36.6132 115.77L36.7046 112.999L40.2055 113.115L40.1768 113.984L38.9331 114.233L38.9323 114.258C39.0899 114.322 39.2462 114.424 39.4013 114.563C39.5564 114.703 39.6977 114.875 39.8254 115.081C39.9531 115.287 40.0543 115.53 40.1292 115.81C40.204 116.09 40.2354 116.41 40.2235 116.771Z" fill="#6A6A6A"/>
<path d="M41.2659 104.123C41.1547 104.709 40.94 105.164 40.622 105.489C40.2972 105.803 39.9195 106.014 39.4889 106.12C39.0599 106.218 38.63 106.231 38.1993 106.157C37.6861 106.069 37.2502 105.887 36.8917 105.614C36.5265 105.331 36.2677 104.983 36.1154 104.569C35.9564 104.146 35.9255 103.678 36.0226 103.166C36.1088 102.712 36.2853 102.323 36.5523 101.997C36.8193 101.672 37.1498 101.439 37.5439 101.301C37.9395 101.153 38.3856 101.123 38.8823 101.208C38.8989 101.211 38.9484 101.221 39.0309 101.237C39.1052 101.251 39.1629 101.262 39.2042 101.269L38.5016 104.971C38.972 105.06 39.357 105.013 39.6567 104.831C39.9497 104.639 40.1338 104.344 40.209 103.948C40.2686 103.635 40.2395 103.36 40.1219 103.124C40.0058 102.879 39.8238 102.712 39.5758 102.623L39.8084 101.397C40.157 101.497 40.4569 101.674 40.7082 101.927C40.9594 102.18 41.1396 102.492 41.2486 102.863C41.3495 103.233 41.3552 103.653 41.2659 104.123ZM37.9392 104.826L38.3951 102.424C38.3357 102.421 38.2418 102.421 38.1133 102.422C37.9848 102.423 37.8467 102.452 37.699 102.51C37.5513 102.567 37.4172 102.666 37.2967 102.805C37.1761 102.945 37.0923 103.139 37.0453 103.386C36.9983 103.634 37.0012 103.844 37.054 104.016C37.1067 104.189 37.1872 104.328 37.2953 104.434C37.4034 104.54 37.5155 104.625 37.6314 104.69C37.7474 104.755 37.85 104.8 37.9392 104.826Z" fill="#6A6A6A"/>
<path d="M43.2238 95.0975C43.1048 95.4915 42.9183 95.7598 42.6646 95.9025C42.4133 96.0372 42.0706 96.0389 41.6364 95.9077L38.6452 95.0037L38.9915 93.8579L42.248 94.8421L42.5979 93.6842L43.5628 93.9758L43.2238 95.0975ZM38.5519 95.7916L37.6834 95.5291C37.7369 95.3522 37.7686 95.2038 37.7785 95.084C37.7884 94.9641 37.7629 94.8599 37.7019 94.7712C37.6433 94.6746 37.5345 94.5846 37.3754 94.5014C37.2162 94.4182 36.9879 94.3317 36.6904 94.2418L36.9893 93.2528L38.2557 93.6355L38.5984 92.5018L39.4668 92.7642L38.5519 95.7916Z" fill="#6A6A6A"/>
<path d="M46.6111 85.8256L41.9008 83.6737L42.4348 82.5047L47.1452 84.6566L46.6111 85.8256ZM41.5604 82.8117C41.4452 83.0638 41.3017 83.2061 41.13 83.2384C40.9617 83.2631 40.7935 83.2371 40.6254 83.1603C40.4573 83.0835 40.3313 82.9751 40.2475 82.8352C40.1595 82.6842 40.1731 82.4826 40.2883 82.2305C40.4069 81.9707 40.5487 81.8323 40.7135 81.8152C40.8741 81.7871 41.0385 81.8113 41.2066 81.8881C41.3747 81.9649 41.5045 82.075 41.5959 82.2184C41.6909 82.3541 41.6791 82.5519 41.5604 82.8117Z" fill="#6A6A6A"/>
<path d="M48.0429 82.5429L43.5385 79.988L44.0793 79.0345L45.1604 79.4014L45.1728 79.3795C45.155 79.3598 45.1111 79.301 45.041 79.2033C44.9677 79.0942 44.9 78.9495 44.838 78.7695C44.7801 78.5821 44.7612 78.3686 44.7813 78.1289C44.7982 77.8778 44.8895 77.6061 45.0553 77.3138C45.2376 76.9923 45.4396 76.764 45.6611 76.6289C45.8794 76.4823 46.1094 76.4003 46.3511 76.3829C46.5854 76.3613 46.821 76.3887 47.0577 76.465C47.2913 76.5299 47.5125 76.6168 47.7212 76.7255C47.9341 76.8269 48.1245 76.9253 48.2926 77.0206L50.4736 78.2577L49.8519 79.3537L47.66 78.1104C47.4188 77.9736 47.1851 77.8749 46.9589 77.8141C46.7367 77.746 46.5242 77.7462 46.3212 77.8146C46.1224 77.8756 45.9422 78.0486 45.7806 78.3336C45.6148 78.6258 45.5578 78.8881 45.6096 79.1202C45.6541 79.3483 45.762 79.5495 45.9335 79.724C46.1049 79.8985 46.3075 80.0521 46.5413 80.1847L48.6894 81.4031L48.0429 82.5429Z" fill="#6A6A6A"/>
<path d="M57.3383 68.3421C57.0766 68.6598 56.8012 68.8356 56.5121 68.8695C56.2283 68.8969 55.9114 68.7664 55.5613 68.478L53.1494 66.4912L53.9105 65.5673L56.5363 67.7303L57.3054 66.7967L58.0834 67.4376L57.3383 68.3421ZM52.7597 67.1823L52.0595 66.6055C52.177 66.4628 52.2634 66.3381 52.3187 66.2313C52.374 66.1245 52.3907 66.0185 52.3685 65.9132C52.3518 65.8015 52.286 65.6765 52.1712 65.5384C52.0564 65.4003 51.8791 65.2325 51.6392 65.0349L52.2961 64.2374L53.3173 65.0786L54.0703 64.1644L54.7705 64.7412L52.7597 67.1823Z" fill="#6A6A6A"/>
<path d="M61.7014 63.5883C61.2951 63.9898 60.8718 64.2486 60.4316 64.3648C59.9973 64.4751 59.5727 64.4578 59.1578 64.3127C58.737 64.1618 58.3465 63.904 57.9863 63.5396C57.6202 63.1692 57.3671 62.7756 57.2271 62.359C57.0811 61.9364 57.0658 61.5087 57.1812 61.0757C57.3026 60.6369 57.5694 60.2138 57.9816 59.8064C58.5851 59.21 59.2134 58.9316 59.8665 58.9711C60.5257 59.0047 61.1357 59.3053 61.6966 59.8729C62.045 60.2254 62.2951 60.61 62.4471 61.0267C62.5991 61.4434 62.6203 61.8712 62.5108 62.3101C62.3954 62.743 62.1256 63.1691 61.7014 63.5883ZM60.9397 62.8175C61.2085 62.5518 61.3556 62.2943 61.3808 62.045C61.412 61.7898 61.3659 61.5519 61.2425 61.3314C61.1132 61.1049 60.9599 60.9021 60.7828 60.7228C60.5938 60.5316 60.3899 60.373 60.1708 60.247C59.9518 60.121 59.7145 60.072 59.4589 60.1002C59.2034 60.1165 58.9412 60.2575 58.6724 60.5233C58.4095 60.783 58.2654 61.0435 58.2401 61.3047C58.2148 61.5541 58.261 61.7919 58.3784 62.0183C58.5018 62.2388 58.658 62.4447 58.847 62.6359C59.0241 62.8151 59.2251 62.9707 59.4501 63.1028C59.6751 63.2229 59.9124 63.2718 60.162 63.2495C60.4176 63.2213 60.6768 63.0773 60.9397 62.8175Z" fill="#6A6A6A"/>
<path d="M68.7371 57.1278C68.4493 57.346 68.1761 57.4792 67.9176 57.5276C67.6658 57.5709 67.428 57.5561 67.2042 57.4833C66.9871 57.4054 66.7841 57.2906 66.5952 57.1386C66.4062 56.9867 66.234 56.8221 66.0786 56.6448C65.918 56.4608 65.7769 56.2885 65.6551 56.1278L64.0568 54.0191L65.051 53.2656L66.6492 55.3743C66.8065 55.5819 66.9763 55.7641 67.1585 55.9211C67.3357 56.0714 67.5335 56.1586 67.7521 56.1827C67.9722 56.195 68.2162 56.0997 68.4839 55.8968C68.745 55.6989 68.8994 55.4923 68.947 55.277C68.9896 55.0551 68.9658 54.8359 68.8757 54.6197C68.7804 54.3967 68.6652 54.189 68.5298 53.9964L66.9087 51.8576L67.963 51.0584L71.0911 55.1855L70.2175 55.8477L69.4531 55.1938L69.433 55.2091C69.4501 55.2594 69.4674 55.3517 69.4848 55.486C69.5023 55.6203 69.4981 55.7816 69.4722 55.9699C69.4529 56.1531 69.3875 56.345 69.276 56.5455C69.1644 56.7459 68.9848 56.9401 68.7371 57.1278Z" fill="#6A6A6A"/>
<path d="M77.4388 51.0772C77.0155 51.3185 76.5846 51.453 76.1459 51.4807C75.7031 51.5011 75.2838 51.4017 74.8881 51.1825C74.4883 50.956 74.149 50.5983 73.8702 50.1094C73.6061 49.6122 73.4727 49.1322 73.47 48.6696C73.4747 48.2029 73.5944 47.7769 73.8292 47.3916C74.064 47.0063 74.3967 46.691 74.8272 46.4455C75.2797 46.1876 75.7127 46.0567 76.1263 46.053C76.5358 46.0419 76.9051 46.1215 77.2342 46.2916C77.5632 46.4618 77.824 46.6902 78.0165 46.9769L76.9875 47.5635C76.7867 47.33 76.5519 47.1979 76.2831 47.1674C76.0143 47.137 75.723 47.2112 75.4092 47.39C75.1465 47.5398 74.9552 47.7214 74.8351 47.9349C74.7151 48.1484 74.6602 48.3827 74.6703 48.638C74.6836 48.8818 74.7652 49.1351 74.9149 49.3978C75.1562 49.821 75.4518 50.1021 75.8018 50.2411C76.1548 50.3685 76.5357 50.3158 76.9444 50.0828C77.2217 49.9247 77.4209 49.7144 77.542 49.452C77.6704 49.1854 77.679 48.8952 77.5679 48.5815L78.5968 47.9949C78.7538 48.3212 78.8201 48.675 78.7958 49.0563C78.7787 49.4334 78.6596 49.8011 78.4384 50.1593C78.2244 50.5133 77.8912 50.8193 77.4388 51.0772Z" fill="#6A6A6A"/>
<path d="M84.089 47.2837L81.4134 40.7138L82.6387 40.2148L83.784 43.0271L83.8074 43.0176C83.8056 42.9911 83.8075 42.9178 83.813 42.7976C83.8153 42.6697 83.8479 42.5159 83.9108 42.3361C83.9736 42.1563 84.0832 41.9801 84.2397 41.8076C84.4008 41.6241 84.633 41.4705 84.9364 41.347C85.271 41.2107 85.5709 41.1566 85.8363 41.1846C86.1016 41.2126 86.3345 41.2946 86.5351 41.4306C86.7433 41.5635 86.9207 41.7316 87.067 41.935C87.2179 42.1275 87.3455 42.3295 87.4498 42.541C87.5509 42.7447 87.6363 42.9321 87.706 43.1033L88.6517 45.4255L87.4965 45.896L86.546 43.5621C86.4414 43.3054 86.3192 43.0831 86.1792 42.8952C86.0469 42.7042 85.88 42.5726 85.6783 42.5005C85.4767 42.4285 85.2241 42.4542 84.9207 42.5778C84.6173 42.7014 84.414 42.8703 84.3108 43.0847C84.2045 43.2912 84.1646 43.5161 84.191 43.7593C84.2175 44.0024 84.2814 44.2485 84.3828 44.4975L85.3143 46.7847L84.089 47.2837Z" fill="#6A6A6A"/>
<path d="M100.837 39.2417C100.615 39.2854 100.434 39.2823 100.296 39.2325C100.156 39.1743 100.035 39.1039 99.9336 39.0212C99.84 38.9369 99.748 38.8608 99.6576 38.793C99.5754 38.7235 99.4725 38.7009 99.3489 38.7252C99.2005 38.7544 99.1228 38.8382 99.1158 38.9765C99.1154 39.105 99.1362 39.2764 99.1783 39.4907L98.4365 39.6365C98.4139 39.5211 98.3913 39.3843 98.3687 39.2261C98.3462 39.0679 98.3442 38.9056 98.3629 38.7393C98.3898 38.5713 98.4587 38.4208 98.5695 38.2877C98.6885 38.1531 98.8758 38.0606 99.1313 38.0104C99.3539 37.9666 99.5351 37.9738 99.6749 38.0319C99.8131 38.0818 99.9299 38.153 100.025 38.2456C100.127 38.3283 100.223 38.4036 100.313 38.4714C100.402 38.531 100.504 38.5495 100.62 38.5268C100.768 38.4976 100.842 38.4147 100.84 38.2779C100.838 38.133 100.817 37.9616 100.778 37.7638L101.532 37.6155C101.56 37.7556 101.581 37.9097 101.597 38.0778C101.621 38.2443 101.615 38.4082 101.578 38.5695C101.55 38.7292 101.475 38.8723 101.355 38.9987C101.24 39.1153 101.068 39.1963 100.837 39.2417Z" fill="#6A6A6A"/>
<path d="M115.745 40.2219C115.056 40.2074 114.454 40.0561 113.939 39.768C113.433 39.4801 113.047 39.0603 112.781 38.5086C112.516 37.9569 112.399 37.2907 112.433 36.51C112.466 35.7125 112.64 35.0398 112.954 34.4919C113.268 33.944 113.697 33.5329 114.24 33.2587C114.792 32.9847 115.417 32.855 116.114 32.8697C117.079 32.89 117.823 33.1157 118.343 33.5468C118.872 33.9696 119.211 34.5859 119.362 35.3956L118.124 35.546C118.048 35.1915 117.907 34.9071 117.701 34.6927C117.504 34.4785 117.263 34.3264 116.98 34.2364C116.696 34.138 116.399 34.0856 116.088 34.079C115.282 34.062 114.681 34.272 114.285 34.709C113.898 35.1377 113.701 35.7133 113.694 36.4357C113.678 37.242 113.879 37.8679 114.298 38.3137C114.725 38.7512 115.334 38.9782 116.123 38.9948C116.442 39.0016 116.746 38.9575 117.034 38.8628C117.33 38.7598 117.585 38.6055 117.799 38.4C118.014 38.1861 118.163 37.9119 118.245 37.5776L116.683 37.5447L116.703 36.5999L119.474 36.6583L119.401 40.1603L118.532 40.142L118.268 38.9014L118.243 38.9008C118.18 39.0592 118.081 39.2167 117.943 39.3734C117.805 39.5302 117.634 39.6736 117.43 39.8037C117.225 39.9338 116.984 40.038 116.705 40.1161C116.426 40.1943 116.106 40.2295 115.745 40.2219Z" fill="#6A6A6A"/>
<path d="M128.404 41.1113C127.817 41.0072 127.359 40.7981 127.031 40.484C126.712 40.1631 126.497 39.788 126.386 39.3587C126.283 38.9309 126.265 38.5012 126.333 38.0697C126.415 37.5554 126.591 37.1174 126.86 36.7555C127.139 36.3869 127.484 36.1239 127.896 35.9666C128.317 35.8024 128.784 35.7658 129.297 35.8567C129.752 35.9374 130.144 36.1092 130.473 36.3722C130.801 36.6352 131.038 36.9629 131.181 37.3552C131.333 37.749 131.369 38.1947 131.29 38.6924C131.287 38.709 131.278 38.7586 131.263 38.8413C131.25 38.9158 131.24 38.9737 131.233 39.015L127.523 38.3574C127.439 38.8289 127.491 39.2134 127.677 39.5108C127.873 39.8015 128.169 39.982 128.566 40.0523C128.881 40.1081 129.155 40.0757 129.39 39.9552C129.633 39.8361 129.797 39.6521 129.884 39.403L131.112 39.6207C131.016 39.9705 130.843 40.2726 130.594 40.5269C130.344 40.7812 130.034 40.9651 129.664 41.0787C129.295 41.184 128.876 41.1949 128.404 41.1113ZM127.661 37.7933L130.068 38.22C130.07 38.1606 130.07 38.0667 130.067 37.9383C130.064 37.8098 130.033 37.6721 129.974 37.5251C129.915 37.3781 129.815 37.2451 129.674 37.1263C129.533 37.0075 129.338 36.9261 129.09 36.8821C128.842 36.8381 128.632 36.8435 128.46 36.8984C128.288 36.9532 128.15 37.0354 128.045 37.1448C127.94 37.2542 127.856 37.3672 127.793 37.484C127.73 37.6007 127.686 37.7038 127.661 37.7933Z" fill="#6A6A6A"/>
<path d="M137.466 42.9615C137.071 42.8472 136.8 42.664 136.654 42.412C136.517 42.1623 136.511 41.8196 136.637 41.3839L137.505 38.3821L138.655 38.7146L137.71 41.9827L138.872 42.3187L138.592 43.287L137.466 42.9615ZM136.716 38.2982L136.968 37.4267C137.145 37.478 137.294 37.5079 137.414 37.5164C137.534 37.5249 137.638 37.4981 137.726 37.436C137.822 37.3764 137.91 37.2664 137.992 37.1063C138.073 36.9462 138.157 36.7168 138.243 36.4183L139.236 36.7053L138.868 37.9762L140.006 38.3052L139.754 39.1767L136.716 38.2982Z" fill="#6A6A6A"/>
<path d="M146.77 46.2357L148.865 41.4998L150.04 42.0198L147.945 46.7557L146.77 46.2357ZM149.722 41.1491C149.469 41.037 149.325 40.8952 149.291 40.7238C149.264 40.5558 149.288 40.3874 149.363 40.2184C149.437 40.0494 149.544 39.9221 149.683 39.8366C149.833 39.7468 150.035 39.7579 150.288 39.8701C150.549 39.9856 150.69 40.1257 150.709 40.2903C150.739 40.4505 150.716 40.6152 150.642 40.7842C150.567 40.9532 150.458 41.0843 150.316 41.1775C150.182 41.2741 149.984 41.2646 149.722 41.1491Z" fill="#6A6A6A"/>
<path d="M150.078 47.6307L152.579 43.0962L153.539 43.6256L153.185 44.711L153.207 44.7231C153.226 44.7051 153.285 44.6605 153.381 44.5892C153.49 44.5146 153.633 44.4453 153.813 44.3811C153.999 44.3209 154.213 44.2995 154.453 44.3167C154.704 44.3306 154.977 44.4187 155.271 44.581C155.595 44.7595 155.825 44.9587 155.963 45.1785C156.112 45.3951 156.197 45.6241 156.217 45.8656C156.242 46.0996 156.217 46.3355 156.144 46.5732C156.081 46.8075 155.997 47.0297 155.891 47.2397C155.792 47.4538 155.696 47.6454 155.603 47.8145L154.392 50.0101L153.288 49.4016L154.505 47.195C154.639 46.9522 154.735 46.7174 154.793 46.4904C154.859 46.2675 154.856 46.0549 154.785 45.8528C154.722 45.6547 154.547 45.4766 154.26 45.3184C153.966 45.1561 153.703 45.1022 153.471 45.1568C153.244 45.204 153.044 45.3143 152.871 45.4878C152.699 45.6613 152.548 45.8658 152.418 46.1011L151.225 48.2636L150.078 47.6307Z" fill="#6A6A6A"/>
<path d="M164.384 56.7521C164.063 56.4942 163.884 56.2209 163.846 55.9322C163.816 55.6488 163.942 55.3303 164.227 54.9768L166.185 52.5415L167.118 53.2916L164.986 55.9429L165.929 56.7008L165.297 57.4864L164.384 56.7521ZM165.489 52.16L166.057 51.453C166.201 51.5688 166.327 51.6537 166.435 51.7078C166.542 51.7618 166.648 51.7772 166.753 51.7538C166.865 51.7357 166.989 51.6685 167.126 51.5521C167.262 51.4356 167.428 51.2563 167.623 51.0141L168.428 51.6615L167.599 52.6926L168.522 53.4347L167.954 54.1417L165.489 52.16Z" fill="#6A6A6A"/>
<path d="M169.191 61.0608C168.785 60.6593 168.521 60.2392 168.4 59.8004C168.284 59.3674 168.297 58.9427 168.437 58.526C168.583 58.1034 168.836 57.7099 169.196 57.3454C169.562 56.975 169.952 56.7173 170.367 56.5722C170.788 56.4212 171.216 56.4009 171.65 56.5111C172.09 56.6273 172.516 56.8891 172.929 57.2965C173.532 57.8928 173.818 58.5178 173.786 59.1713C173.761 59.8308 173.467 60.4443 172.906 61.012C172.558 61.3645 172.176 61.6192 171.762 61.7761C171.347 61.933 170.919 61.9593 170.479 61.855C170.045 61.7447 169.616 61.48 169.191 61.0608ZM169.953 60.29C170.222 60.5557 170.481 60.6997 170.731 60.722C170.986 60.7502 171.224 60.7012 171.443 60.5752C171.667 60.4432 171.868 60.2875 172.046 60.1083C172.235 59.9171 172.391 59.7112 172.514 59.4907C172.638 59.2702 172.684 59.0324 172.652 58.7771C172.633 58.5218 172.489 58.2613 172.22 57.9957C171.957 57.7359 171.695 57.5949 171.434 57.5727C171.184 57.5504 170.947 57.5993 170.722 57.7195C170.503 57.8455 170.299 58.0041 170.11 58.1953C169.933 58.3746 169.779 58.5774 169.65 58.8039C169.533 59.0303 169.487 59.2682 169.512 59.5175C169.543 59.7728 169.69 60.0303 169.953 60.29Z" fill="#6A6A6A"/>
<path d="M175.732 68.0225C175.51 67.7373 175.374 67.4658 175.322 67.2079C175.276 66.9566 175.288 66.7187 175.358 66.494C175.433 66.276 175.546 66.0716 175.695 65.8809C175.845 65.6901 176.008 65.516 176.183 65.3584C176.365 65.1957 176.536 65.0525 176.695 64.9288L178.784 63.3055L179.55 64.2905L177.46 65.9139C177.255 66.0736 177.074 66.2456 176.919 66.4297C176.771 66.6086 176.686 66.8075 176.665 67.0263C176.655 67.2465 176.753 67.4894 176.96 67.7547C177.161 68.0134 177.369 68.1653 177.585 68.2103C177.807 68.2502 178.026 68.2238 178.241 68.1311C178.463 68.0333 178.669 67.9155 178.86 67.7778L180.98 66.1313L181.791 67.1761L177.702 70.3532L177.029 69.4875L177.674 68.7154L177.659 68.6955C177.609 68.7132 177.516 68.7315 177.382 68.7506C177.248 68.7697 177.087 68.7674 176.898 68.7437C176.715 68.7267 176.522 68.6636 176.32 68.5544C176.119 68.4453 175.922 68.268 175.732 68.0225Z" fill="#6A6A6A"/>
<path d="M181.889 76.6455C181.642 76.2251 181.503 75.7958 181.47 75.3575C181.444 74.915 181.539 74.4945 181.753 74.0962C181.975 73.6937 182.328 73.3501 182.814 73.0656C183.308 72.7955 183.786 72.6563 184.249 72.6481C184.715 72.6472 185.143 72.7618 185.531 72.992C185.919 73.2221 186.238 73.551 186.489 73.9786C186.752 74.4279 186.888 74.8593 186.897 75.2729C186.913 75.6822 186.838 76.0524 186.672 76.3835C186.505 76.7146 186.28 76.9781 185.996 77.1739L185.397 76.1521C185.628 75.9485 185.757 75.7121 185.784 75.443C185.812 75.1739 185.734 74.8835 185.551 74.5719C185.398 74.311 185.215 74.1218 185 74.0043C184.785 73.8869 184.55 73.8347 184.295 73.848C184.051 73.8642 183.799 73.9487 183.538 74.1016C183.118 74.348 182.84 74.647 182.705 74.9985C182.582 75.3531 182.639 75.7333 182.877 76.1392C183.039 76.4145 183.251 76.6112 183.515 76.7292C183.783 76.8544 184.074 76.8596 184.386 76.7446L184.985 77.7665C184.66 77.9274 184.307 77.9979 183.926 77.9781C183.549 77.9656 183.179 77.8509 182.819 77.634C182.462 77.4243 182.152 77.0948 181.889 76.6455Z" fill="#6A6A6A"/>
<path d="M185.762 83.2592L192.299 80.5053L192.813 81.7245L190.014 82.9034L190.024 82.9266C190.051 82.9245 190.124 82.9256 190.244 82.9296C190.372 82.9304 190.526 82.9611 190.707 83.0218C190.887 83.0825 191.065 83.19 191.239 83.3444C191.425 83.5033 191.581 83.7337 191.708 84.0356C191.848 84.3685 191.906 84.6677 191.881 84.9334C191.857 85.1991 191.777 85.433 191.644 85.6351C191.513 85.845 191.347 86.0243 191.146 86.173C190.955 86.3263 190.755 86.4563 190.544 86.5631C190.342 86.6666 190.155 86.7542 189.985 86.826L187.674 87.7994L187.19 86.6498L189.512 85.6715C189.768 85.5639 189.989 85.439 190.175 85.2968C190.364 85.1623 190.494 84.9938 190.564 84.7912C190.633 84.5887 190.604 84.3365 190.477 84.0346C190.35 83.7327 190.179 83.5314 189.963 83.4308C189.755 83.327 189.53 83.2897 189.287 83.3191C189.044 83.3485 188.799 83.4153 188.551 83.5197L186.275 84.4784L185.762 83.2592Z" fill="#6A6A6A"/>
<path d="M194.008 99.9133C193.962 99.6912 193.962 99.5108 194.011 99.372C194.067 99.2315 194.136 99.1099 194.218 99.007C194.301 98.9124 194.376 98.8195 194.443 98.7283C194.511 98.6454 194.532 98.5422 194.507 98.4189C194.476 98.2709 194.391 98.1942 194.253 98.1888C194.124 98.1899 193.953 98.2127 193.739 98.2574L193.585 97.5174C193.7 97.4933 193.836 97.4691 193.994 97.4447C194.152 97.4203 194.314 97.4164 194.481 97.4331C194.649 97.458 194.8 97.5251 194.935 97.6343C195.071 97.7518 195.166 97.938 195.219 98.1929C195.265 98.4149 195.26 98.5961 195.204 98.7366C195.156 98.8754 195.086 98.993 194.994 99.0893C194.913 99.1922 194.839 99.2892 194.772 99.3804C194.713 99.4698 194.696 99.5721 194.72 99.6872C194.751 99.8352 194.835 99.9078 194.972 99.905C195.117 99.9005 195.288 99.8776 195.485 99.8364L195.642 100.589C195.502 100.618 195.349 100.641 195.181 100.659C195.014 100.686 194.851 100.681 194.689 100.646C194.529 100.62 194.385 100.547 194.257 100.428C194.139 100.315 194.056 100.143 194.008 99.9133Z" fill="#6A6A6A"/>
<path d="M151.248 89.499C130.158 86.155 88.472 94.7709 90.4514 155.989M90.4514 155.989L108.828 139.502M90.4514 155.989L77.1352 136.713" stroke="#C1C1C1" stroke-width="6" stroke-linecap="round"/>
<defs>
<filter id="filter0_d_975_38" x="0.4" y="0.4" width="233.2" height="233.2" filterUnits="userSpaceOnUse" color-interpolation-filters="sRGB">
<feFlood flood-opacity="0" result="BackgroundImageFix"/>
<feColorMatrix in="SourceAlpha" type="matrix" values="0 0 0 0 0 0 0 0 0 0 0 0 0 0 0 0 0 0 127 0" result="hardAlpha"/>
<feMorphology radius="2" operator="dilate" in="SourceAlpha" result="effect1_dropShadow_975_38"/>
<feOffset/>
<feGaussianBlur stdDeviation="7.8"/>
<feComposite in2="hardAlpha" operator="out"/>
<feColorMatrix type="matrix" values="0 0 0 0 0 0 0 0 0 0 0 0 0 0 0 0 0 0 0.25 0"/>
<feBlend mode="normal" in2="BackgroundImageFix" result="effect1_dropShadow_975_38"/>
<feBlend mode="normal" in="SourceGraphic" in2="effect1_dropShadow_975_38" result="shape"/>
</filter>
</defs>
</svg>
