<svg width="144" height="143" viewBox="0 0 144 143" fill="none" xmlns="http://www.w3.org/2000/svg">
<mask id="path-1-outside-1_537_3080" maskUnits="userSpaceOnUse" x="101.919" y="3.89757" width="19.1128" height="22.8606" fill="black">
<rect fill="white" x="101.919" y="3.89757" width="19.1128" height="22.8606"/>
<path d="M111.54 8.39747C110.671 8.59801 109.923 8.92948 109.296 9.3919C108.675 9.84548 108.185 10.4123 107.828 11.0924C107.476 11.7637 107.262 12.5277 107.188 13.3846C107.113 14.2415 107.191 15.1692 107.421 16.1675C107.726 17.489 108.196 18.591 108.831 19.4733C109.471 20.3467 110.262 20.9548 111.204 21.2973C112.152 21.6382 113.244 21.6661 114.48 21.3811C115.183 21.2186 115.831 21.0087 116.422 20.7513C117.019 20.485 117.591 20.1941 118.138 19.8786L118.506 21.4731C117.982 21.8212 117.415 22.1184 116.806 22.3648C116.199 22.6184 115.461 22.8454 114.591 23.046C112.99 23.4155 111.574 23.3943 110.344 22.9821C109.12 22.5611 108.098 21.8058 107.28 20.7163C106.468 19.6252 105.872 18.2536 105.491 16.6017C105.215 15.4095 105.13 14.2832 105.233 13.223C105.342 12.154 105.633 11.1866 106.106 10.3209C106.587 9.45346 107.25 8.71812 108.094 8.11483C108.943 7.50269 109.975 7.05658 111.189 6.77649C111.986 6.59252 112.773 6.49419 113.549 6.4815C114.325 6.4688 115.046 6.54091 115.71 6.69782L115.335 8.41824C114.779 8.30442 114.181 8.23452 113.539 8.20855C112.903 8.17373 112.237 8.23671 111.54 8.39747Z"/>
</mask>
<path d="M111.54 8.39747C110.671 8.59801 109.923 8.92948 109.296 9.3919C108.675 9.84548 108.185 10.4123 107.828 11.0924C107.476 11.7637 107.262 12.5277 107.188 13.3846C107.113 14.2415 107.191 15.1692 107.421 16.1675C107.726 17.489 108.196 18.591 108.831 19.4733C109.471 20.3467 110.262 20.9548 111.204 21.2973C112.152 21.6382 113.244 21.6661 114.48 21.3811C115.183 21.2186 115.831 21.0087 116.422 20.7513C117.019 20.485 117.591 20.1941 118.138 19.8786L118.506 21.4731C117.982 21.8212 117.415 22.1184 116.806 22.3648C116.199 22.6184 115.461 22.8454 114.591 23.046C112.99 23.4155 111.574 23.3943 110.344 22.9821C109.12 22.5611 108.098 21.8058 107.28 20.7163C106.468 19.6252 105.872 18.2536 105.491 16.6017C105.215 15.4095 105.13 14.2832 105.233 13.223C105.342 12.154 105.633 11.1866 106.106 10.3209C106.587 9.45346 107.25 8.71812 108.094 8.11483C108.943 7.50269 109.975 7.05658 111.189 6.77649C111.986 6.59252 112.773 6.49419 113.549 6.4815C114.325 6.4688 115.046 6.54091 115.71 6.69782L115.335 8.41824C114.779 8.30442 114.181 8.23452 113.539 8.20855C112.903 8.17373 112.237 8.23671 111.54 8.39747Z" fill="black"/>
<path d="M109.296 9.3919L109.852 10.154L109.856 10.1513L109.296 9.3919ZM107.828 11.0924L106.992 10.6535L106.992 10.6543L107.828 11.0924ZM108.831 19.4733L108.065 20.0243L108.07 20.0311L108.831 19.4733ZM111.204 21.2973L110.881 22.1839L110.885 22.1852L111.204 21.2973ZM116.422 20.7513L116.799 21.6163L116.807 21.6128L116.422 20.7513ZM118.138 19.8786L119.058 19.6665L118.771 18.4251L117.667 19.0611L118.138 19.8786ZM118.506 21.4731L119.028 22.2594L119.573 21.8981L119.426 21.261L118.506 21.4731ZM116.806 22.3648L116.452 21.4901L116.442 21.4942L116.806 22.3648ZM110.344 22.9821L110.037 23.8743L110.044 23.8767L110.344 22.9821ZM107.28 20.7163L106.523 21.2794L106.525 21.2831L107.28 20.7163ZM105.233 13.223L104.294 13.1274L104.294 13.1315L105.233 13.223ZM106.106 10.3209L105.281 9.86353L105.279 9.86812L106.106 10.3209ZM108.094 8.11483L108.642 8.88245L108.645 8.88036L108.094 8.11483ZM113.549 6.4815L113.565 7.42486L113.549 6.4815ZM115.71 6.69782L116.632 6.89855L116.829 5.99279L115.927 5.77962L115.71 6.69782ZM115.335 8.41824L115.146 9.34254L116.059 9.5295L116.257 8.61897L115.335 8.41824ZM113.539 8.20855L113.488 9.15072L113.501 9.15126L113.539 8.20855ZM111.328 7.47814C110.352 7.7035 109.481 8.0833 108.736 8.63255L109.856 10.1513C110.365 9.77567 110.991 9.49252 111.752 9.3168L111.328 7.47814ZM108.74 8.62977C108.002 9.16821 107.417 9.84553 106.992 10.6535L108.663 11.5314C108.953 10.9791 109.347 10.5227 109.852 10.154L108.74 8.62977ZM106.992 10.6543C106.575 11.4502 106.332 12.3381 106.248 13.3028L108.128 13.4665C108.193 12.7174 108.377 12.0771 108.663 11.5305L106.992 10.6543ZM106.248 13.3028C106.163 14.2749 106.254 15.3029 106.502 16.3796L108.341 15.9553C108.129 15.0355 108.063 14.2082 108.128 13.4665L106.248 13.3028ZM106.502 16.3796C106.829 17.7939 107.342 19.0185 108.065 20.0243L109.597 18.9223C109.051 18.1634 108.624 17.1841 108.341 15.9553L106.502 16.3796ZM108.07 20.0311C108.811 21.0423 109.75 21.7723 110.881 22.1839L111.526 20.4107C110.775 20.1372 110.131 19.6512 109.592 18.9155L108.07 20.0311ZM110.885 22.1852C112.043 22.6014 113.325 22.6157 114.692 22.3004L114.267 20.4617C113.163 20.7165 112.262 20.6751 111.523 20.4094L110.885 22.1852ZM114.692 22.3004C115.445 22.1265 116.149 21.8994 116.799 21.6163L116.045 19.8862C115.513 20.118 114.922 20.3108 114.267 20.4617L114.692 22.3004ZM116.807 21.6128C117.432 21.3338 118.033 21.0283 118.609 20.6961L117.667 19.0611C117.149 19.3599 116.606 19.6361 116.038 19.8897L116.807 21.6128ZM117.219 20.0908L117.587 21.6852L119.426 21.261L119.058 19.6665L117.219 20.0908ZM117.985 20.6868C117.515 20.9984 117.005 21.2665 116.452 21.4902L117.16 23.2394C117.825 22.9702 118.448 22.6439 119.028 22.2594L117.985 20.6868ZM116.442 21.4942C115.898 21.7215 115.214 21.9341 114.379 22.1266L114.804 23.9653C115.708 23.7567 116.499 23.5152 117.169 23.2354L116.442 21.4942ZM114.379 22.1266C112.903 22.4674 111.67 22.4313 110.644 22.0875L110.044 23.8767C111.478 24.3572 113.077 24.3637 114.804 23.9653L114.379 22.1266ZM110.651 22.0899C109.615 21.7335 108.746 21.0967 108.034 20.1495L106.525 21.2831C107.451 22.515 108.625 23.3886 110.037 23.8743L110.651 22.0899ZM108.037 20.1533C107.32 19.189 106.769 17.9449 106.41 16.3896L104.571 16.8138C104.975 18.5623 105.617 20.0613 106.523 21.2794L108.037 20.1533ZM106.41 16.3896C106.154 15.2823 106.08 14.2593 106.172 13.3145L104.294 13.1315C104.179 14.3072 104.277 15.5366 104.571 16.8138L106.41 16.3896ZM106.172 13.3186C106.269 12.3636 106.526 11.5194 106.934 10.7736L105.279 9.86812C104.74 10.8538 104.415 11.9444 104.294 13.1274L106.172 13.3186ZM106.932 10.7782C107.341 10.0392 107.907 9.40804 108.642 8.88245L107.545 7.34721C106.592 8.0282 105.833 8.86773 105.281 9.86353L106.932 10.7782ZM108.645 8.88036C109.376 8.35404 110.287 7.95295 111.401 7.69582L110.977 5.85716C109.664 6.1602 108.511 6.65134 107.542 7.3493L108.645 8.88036ZM111.401 7.69582C112.137 7.52595 112.858 7.43641 113.565 7.42486L113.534 5.53813C112.688 5.55197 111.835 5.6591 110.977 5.85716L111.401 7.69582ZM113.565 7.42486C114.273 7.41327 114.914 7.47937 115.493 7.61603L115.927 5.77962C115.177 5.60245 114.378 5.52433 113.534 5.53813L113.565 7.42486ZM114.788 6.49709L114.413 8.21751L116.257 8.61897L116.632 6.89855L114.788 6.49709ZM115.524 7.49393C114.913 7.36869 114.263 7.2936 113.577 7.26583L113.501 9.15126C114.098 9.17545 114.646 9.24015 115.146 9.34254L115.524 7.49393ZM113.591 7.26647C112.856 7.22626 112.101 7.29985 111.328 7.47814L111.752 9.3168C112.373 9.17357 112.95 9.12121 113.488 9.15062L113.591 7.26647Z" fill="black" mask="url(#path-1-outside-1_537_3080)"/>
<path d="M143.446 92.3922L72.6843 142.397L10.4141 95.6944L31.6425 100.412L57.5885 80.5986L76.4582 5.59131H101.932V9.837H96.7432V23.9893H93.441V9.837H87.3083L79.2887 48.0483C79.2887 48.0483 89.1953 47.1048 95.7997 48.9918C102.404 50.8787 108.065 56.5397 108.065 56.5397C110.036 50.4243 112.783 42.8591 112.783 42.8591C112.783 42.8591 117.04 32.6422 120.33 26.348L143.446 92.3922Z" fill="black" stroke="black" stroke-width="0.943488"/>
<path d="M95.3292 50.8785C91.082 49.4632 78.3464 49.935 78.3464 49.935C73.4784 58.2705 72.6163 62.5156 75.0442 69.2765C82.5906 63.6156 98.1582 67.3895 99.1031 77.2961C105.577 74.3659 107.454 70.2025 107.123 58.4264C107.123 58.4264 99.5764 52.2937 95.3292 50.8785Z" fill="white" stroke="black" stroke-width="0.943488"/>
<path d="M63.7344 104.186L76.9432 71.164C83.2308 66.3892 94.3977 69.277 97.6999 77.2966L88.7368 117.395C80.4748 127.018 76.5656 131.277 72.6975 133.906L83.0759 104.186C85.7169 102.16 84.9629 99.4686 83.0759 98.9969C80.2454 98.9969 79.6885 99.9982 79.7737 103.243L69.867 133.906C69.4177 121.947 68.3746 115.395 63.7344 104.186Z" fill="white" stroke="black" stroke-width="0.943488"/>
<path d="M72.2333 5.12L26.0024 4.17651L1 87.2035L29.3046 95.6948L36.8525 73.9946L54.3071 77.7686L72.2333 5.12Z" fill="black" stroke="black" stroke-width="0.943488"/>
<path d="M34.9648 92.8643L39.2105 78.2402L49.1172 81.5424L34.9648 92.8643Z" fill="black" stroke="black" stroke-width="0.943488"/>
<path d="M64.6886 10.7804L29.3078 9.83691L6.66406 84.8442L26.4773 89.0899L33.0817 67.8614L49.5928 71.6354L64.6886 10.7804Z" fill="white"/>
</svg>
